# xmcd
# 
# Track frame offsets:
#     150
#     11857
#     23094
#     33034
#     43175
#     55269
#     69187
#     88367
#     101598
#     116877
#     128126
#     141474
#     153755
#     164720
#     178046
#     189919
#     204589
#     214881
#     227639
# 
# Disc length: 3199
# 
# Revision: 1
# Processed by: cddbd v1.5.2PL0 Copyright (c) Steve Scherf et al.
# Submitted via: fre:ac v1.0.31
# 
DISCID=0f0c7d13
DTITLE=Readers Digest - From Sea To Shining Sea Disc 4
DYEAR=2004
DGENRE=Patriotic
TTITLE0=On The Road Again
TTITLE1=King of the Road
TTITLE2=Blue Moon of Kentucky
TTITLE3=(In Them Old) Cotton Fields Back Home
TTITLE4=Galveston
TTITLE5=Highwayman
TTITLE6=Many A Long And Lonesome Highway
TTITLE7=Houston (Means I'm One Day Closer to You)
TTITLE8=Home
TTITLE9=Amazing Grace
TTITLE10=How Great Thou Art
TTITLE11=You'll Never Walk Alone
TTITLE12=The Lord's Prayer
TTITLE13=It Is No Secret (What God Can Do)
TTITLE14=He's Got The Whole World In His Hands
TTITLE15=(There'll Be) Peace In The Valley (For Me)
TTITLE16=I Believe
TTITLE17=The Church In the Wildwood
TTITLE18=May The Good Lord Bless And Keep You
EXTD=Reader Digest Music 4 of 4
EXTT0=
EXTT1=
EXTT2=
EXTT3=
EXTT4=
EXTT5=
EXTT6=
EXTT7=
EXTT8=
EXTT9=
EXTT10=
EXTT11=
EXTT12=
EXTT13=
EXTT14=
EXTT15=
EXTT16=
EXTT17=
EXTT18=
PLAYORDER=
